# xmcd
#
# Track frame offsets: 
#        150
#        19977
#        39607
#        60814
#
# Disc length: 1067 seconds
#
# Revision: 0
# Processed by: cddbd v1.4PL0 Copyright (c) Steve Scherf et al.
# Submitted via: ExactAudioCopy v0.90b3
#
DISCID=28042904
DTITLE=Crucial Conflict - Hay - Single
DYEAR=1996
DGENRE=Rap
TTITLE0=Hay (album)
TTITLE1=Hay (Instrumental)
TTITLE2=Showdown (album)
TTITLE3=Hay (accapella)
EXTD=
EXTT0=
EXTT1=
EXTT2=
EXTT3=
PLAYORDER=
